<svg width="45" height="45" viewBox="0 0 45 45" fill="none" xmlns="http://www.w3.org/2000/svg">
<rect width="45" height="45" rx="6" fill="white"/>
<path d="M11.3716 32V20.6554H15.5178V32H11.3716ZM13.4992 18.3202C12.8446 18.3202 12.2899 18.0899 11.8353 17.6293C11.3807 17.1594 11.1534 16.6021 11.1534 15.9573C11.1534 15.3124 11.3807 14.7551 11.8353 14.2853C12.299 13.8063 12.8537 13.5668 13.4992 13.5668C13.9266 13.5668 14.3176 13.6773 14.6722 13.8984C15.0268 14.1103 15.3132 14.3958 15.5314 14.7551C15.7496 15.1144 15.8587 15.5151 15.8587 15.9573C15.8587 16.6021 15.6269 17.1594 15.1632 17.6293C14.6995 18.0899 14.1448 18.3202 13.4992 18.3202Z" fill="#1A202C"/>
<path d="M22.1386 17.5463L22.4386 17.6016V32H18.3606V13.7602H23.9252L31.222 28.131L30.922 28.1862V13.7602H35V32H29.4081L22.1386 17.5463Z" fill="#1A202C"/>
<path d="M16.536 16.0227C16.536 17.6921 15.2002 19.0454 13.5525 19.0454C11.9047 19.0454 10.569 17.6921 10.569 16.0227C10.569 14.3533 11.9047 13 13.5525 13C15.2002 13 16.536 14.3533 16.536 16.0227Z" fill="#3563E9"/>
</svg>
