<svg width="758" height="360" viewBox="0 0 758 360" fill="none" xmlns="http://www.w3.org/2000/svg">
<path d="M26 300L1 240H26H51L76 300L51 360H26H1L26 300Z" fill="white" fill-opacity="0.06"/>
<path d="M117 300L92 240H117H142L167 300L142 360H117H92L117 300Z" fill="white" fill-opacity="0.06"/>
<path d="M208 300L183 240H208H233L258 300L233 360H208H183L208 300Z" fill="white" fill-opacity="0.06"/>
<path d="M299 300L274 240H299H324L349 300L324 360H299H274L299 300Z" fill="white" fill-opacity="0.06"/>
<path d="M390 300L365 240H390H415L440 300L415 360H390H365L390 300Z" fill="white" fill-opacity="0.06"/>
<path d="M481 300L456 240H481H506L531 300L506 360H481H456L481 300Z" fill="white" fill-opacity="0.06"/>
<path d="M572 300L547 240H572H597L622 300L597 360H572H547L572 300Z" fill="white" fill-opacity="0.06"/>
<path d="M663 300L638 240H663H688L713 300L688 360H663H638L663 300Z" fill="white" fill-opacity="0.06"/>
<path d="M71 180L46 120H71H96L121 180L96 240H71H46L71 180Z" fill="white" fill-opacity="0.06"/>
<path d="M162 180L137 120H162H187L212 180L187 240H162H137L162 180Z" fill="white" fill-opacity="0.06"/>
<path d="M253 180L228 120H253H278L303 180L278 240H253H228L253 180Z" fill="white" fill-opacity="0.06"/>
<path d="M344 180L319 120H344H369L394 180L369 240H344H319L344 180Z" fill="white" fill-opacity="0.06"/>
<path d="M435 180L410 120H435H460L485 180L460 240H435H410L435 180Z" fill="white" fill-opacity="0.06"/>
<path d="M526 180L501 120H526H551L576 180L551 240H526H501L526 180Z" fill="white" fill-opacity="0.06"/>
<path d="M617 180L592 120H617H642L667 180L642 240H617H592L617 180Z" fill="white" fill-opacity="0.06"/>
<path d="M708 180L683 120H708H733L758 180L733 240H708H683L708 180Z" fill="white" fill-opacity="0.06"/>
<path d="M25 60L0 0H25H50L75 60L50 120H25H0L25 60Z" fill="white" fill-opacity="0.06"/>
<path d="M116 60L91 0H116H141L166 60L141 120H116H91L116 60Z" fill="white" fill-opacity="0.06"/>
<path d="M207 60L182 0H207H232L257 60L232 120H207H182L207 60Z" fill="white" fill-opacity="0.06"/>
<path d="M298 60L273 0H298H323L348 60L323 120H298H273L298 60Z" fill="white" fill-opacity="0.06"/>
<path d="M389 60L364 0H389H414L439 60L414 120H389H364L389 60Z" fill="white" fill-opacity="0.06"/>
<path d="M480 60L455 0H480H505L530 60L505 120H480H455L480 60Z" fill="white" fill-opacity="0.06"/>
<path d="M571 60L546 0H571H596L621 60L596 120H571H546L571 60Z" fill="white" fill-opacity="0.06"/>
<path d="M662 60L637 0H662H687L712 60L687 120H662H637L662 60Z" fill="white" fill-opacity="0.06"/>
</svg>
