<svg width="153" height="25" viewBox="0 0 153 25" fill="none" xmlns="http://www.w3.org/2000/svg">
<path d="M0 0.968265H9.4688C10.8181 0.968265 12.0208 1.24986 13.0768 1.81305C14.1328 2.37625 14.9659 3.19171 15.576 4.25943C16.1979 5.31542 16.5088 6.57673 16.5088 8.04338C16.5088 9.51003 16.2448 10.7127 15.7168 11.6513C15.2005 12.5783 14.5787 13.2764 13.8512 13.7457C13.1237 14.2033 12.4491 14.479 11.8272 14.5729L17.4768 24.2H11.5632L6.5296 14.9777H5.2624V24.2H0V0.968265ZM5.2624 11.3345H7.5856C8.52426 11.3345 9.3456 11.1058 10.0496 10.6482C10.7536 10.1906 11.1056 9.38097 11.1056 8.21938C11.1056 7.0578 10.7595 6.25407 10.0672 5.80821C9.37493 5.35061 8.55947 5.12182 7.6208 5.12182H5.2624V11.3345Z" fill="white"/>
<path d="M20.9368 0.968265H35.7736V5.57941H26.1816V10.3138H35.6856V14.7841H26.1816V19.5889H35.7736V24.2H20.9368V0.968265Z" fill="white"/>
<path d="M44.6152 5.79061L45.0024 5.86101V24.2H39.74V0.968265H46.9208L56.3368 19.2721L55.9496 19.3425V0.968265H61.212V24.2H53.996L44.6152 5.79061Z" fill="white"/>
<path d="M69.5071 5.57941H63.9631V0.968265H80.2959V5.57941H74.7695V24.2H69.5071V5.57941Z" fill="white"/>
<path d="M88.0759 0.968265H93.3031L102.473 24.2H96.8583L95.1687 19.5361H86.2279L84.5207 24.2H78.8887L88.0759 0.968265ZM87.9879 14.9249H93.4263L90.7335 7.30419H90.6807L87.9879 14.9249Z" fill="white"/>
<path d="M104.471 0.968265H109.734V19.5889H118.164V24.2H104.471V0.968265Z" fill="white"/>
<path d="M121.78 24.2V9.75057H127.131V24.2H121.78ZM124.526 6.7762C123.681 6.7762 122.965 6.48287 122.379 5.89621C121.792 5.29782 121.499 4.58796 121.499 3.76663C121.499 2.94531 121.792 2.23545 122.379 1.63706C122.977 1.02693 123.693 0.721867 124.526 0.721867C125.077 0.721867 125.582 0.862665 126.04 1.14426C126.497 1.41413 126.867 1.77786 127.148 2.23545C127.43 2.69304 127.571 3.20344 127.571 3.76663C127.571 4.58796 127.272 5.29782 126.673 5.89621C126.075 6.48287 125.359 6.7762 124.526 6.7762Z" fill="white"/>
<path d="M135.675 5.79061L136.062 5.86101V24.2H130.799V0.968265H137.98L147.396 19.2721L147.009 19.3425V0.968265H152.271V24.2H145.055L135.675 5.79061Z" fill="white"/>
<path d="M128.445 3.84996C128.445 5.97623 126.721 7.69991 124.595 7.69991C122.468 7.69991 120.745 5.97623 120.745 3.84996C120.745 1.72368 122.468 0 124.595 0C126.721 0 128.445 1.72368 128.445 3.84996Z" fill="#AEC8FC"/>
</svg>
